<?xml version="1.0" encoding="UTF-8" standalone="no"?>
<!-- Created with Inkscape (http://www.inkscape.org/) with the name github-god-logo - by Diego Perez-->
<svg width="206.202" height="221.228" viewBox="0 0 54.557 58.533" xml:space="preserve" xmlns="http://www.w3.org/2000/svg"><g transform="translate(-102.396 -53.445)"><ellipse style="fill:none;stroke:#ff0;stroke-width:4.18592" cx="129.674" cy="68.325" rx="25.186" ry="12.787"/><g transform="translate(2.454 5.812)"><ellipse style="fill:#fff;stroke:#fff;stroke-width:2.85763" cx="127.06" cy="82.63" rx="21.394" ry="20.845"/><path style="fill:#000" d="M127.662 59.102c3.543.09 7.072.926 10.2 2.498 3.188 1.602 6.916 4.88 8.958 7.876 7.178 10.534 4.838 25.388-5.199 33.008-2.435 1.85-6.373 3.767-7.512 3.657l-.877-.084-.146-4.762c-.145-4.714-.45-6.349-1.282-6.863-.543-.335-.295-.678.489-.678 1.344 0 4.853-1.285 6.179-2.263 2.348-1.732 3.532-4.324 3.805-8.33.179-2.618-.306-4.738-1.485-6.486-.68-1.007-.716-1.208-.605-3.34.122-2.307-.209-4.03-.816-4.261-.592-.225-3.22.618-4.736 1.52l-1.507.896-2.065-.368a22 22 0 0 0-7.834 0l-2.066.368-1.927-1.039c-1.94-1.046-4.094-1.65-4.653-1.305-.534.33-.935 3.546-.628 5.043.234 1.143.208 1.431-.175 1.922-.248.318-.735 1.113-1.082 1.768-.574 1.08-.632 1.508-.628 4.63.004 2.967.089 3.648.614 4.96 1.274 3.178 4.214 5.4 8.051 6.084.907.162 1.691.325 1.742.363.052.038-.1.344-.337.68-.236.338-.552 1.065-.701 1.617-.321 1.187-.962 1.51-3.001 1.51-1.701 0-2.752-.632-4.167-2.504-1.112-1.47-2.656-2.52-3.711-2.522-1.204-.002-1.125.52.273 1.812.737.681 1.58 1.782 1.874 2.445 1.287 2.91 2.766 3.818 6.172 3.795l2.315-.016v2.41c0 1.523-.117 2.529-.318 2.73-.474.474-1.494.375-3.15-.306-4.258-1.752-8.778-5.737-11.206-9.88-7.355-12.55-2.259-28.796 10.857-34.608 3.185-1.411 6.742-2.067 10.285-1.977"/></g></g></svg>