<svg width="137" height="492" viewBox="0 0 137 492" fill="none" xmlns="http://www.w3.org/2000/svg"><g opacity=".1" fill-rule="evenodd" clip-rule="evenodd" fill="#373737"><path d="M426.639 6.333H179.361l-76.429 235.19 200.065 145.349 200.071-145.349zM99 242.795 176.937 3h252.126L507 242.795 302.997 391z"/><path d="M432.382-1.909h-258.77l-79.984 246.03 209.369 152.062 209.375-152.062zM90.904 245.963l-.904-.662L171.378-5h263.25L516 245.301 302.997 400z"/><path d="M438.124-10.168H167.876l-83.53 256.891L303 405.494l218.66-158.771zM81 247.806 165.814-13h274.377L525 247.806 303 409z"/><path d="M530.958 249.331 443.873-18.415h-281.74L75.042 249.33 303 414.811zM72.76 250.873l-.76-.552 87.955-270.429.294-.892h285.502L534 250.321 303.76 417.453 303 418z"/><path d="M449.618-26.669H156.382L65.748 251.926l237.255 172.19 237.249-172.19zM63 252.824 154.688-29h296.624L543 252.824 303.003 427z"/><path d="M455.357-34.922h-304.72L56.443 254.539 303 433.433l246.551-178.894zM54.611 255.777l-.611-.438 94.885-291.62.236-.719h307.758l94.885 291.62.236.719L303 436z"/><path d="M461.108-42.175H144.892L47.15 258.135l255.847 185.603L558.85 258.135zM45.536 259.223l-.536-.392 98.353-302.198.213-.633h318.868l98.364 302.198.202.633L302.997 446z"/><path d="M568.132 260.741 466.85-50.412H139.156L37.868 260.741 303 453.049zm-531.66.938-.472-.34L137.83-51.447l.179-.553h329.988l101.824 312.792.179.547-266.533 193.316L303 455z"/><path d="M472.595-58.67h-339.19L28.562 263.342l274.435 199.023 274.435-199.023zM27.386 264.137 27 263.85 132.292-59.534l.144-.466h341.122l105.298 323.395.144.455L302.997 464z"/><path d="M586.732 265.947 478.341-66.923H127.665L19.269 265.946 303 471.665zm-568.41.639L18 266.35 126.76-67.632l.121-.368h352.244l108.754 333.982.121.368-284.677 206.414L303 473z"/><path d="M596.02 269.161 484.081-75.181H121.919L9.975 269.16l293.019 212.813zm-586.772.49L9 269.479 121.319-76h363.362L597 269.479 303.236 482.821l-.242.179z"/><path d="m115.753-84-.063.202L0 271.98l.173.127L303 492l.167-.127L606 271.981l-.058-.196L490.253-84zM.675 271.762 116.18-83.429h373.646l115.499 355.191L303 491.279z"/></g></svg>