<svg xmlns="http://www.w3.org/2000/svg" width="20" height="20" viewBox="0 0 20 20" fill="none">
  <path opacity="0.1" d="M10 0C4.47715 0 0 4.47715 0 10C0 15.5228 4.47715 20 10 20C15.5228 20 20 15.5228 20 10C19.9936 4.47982 15.5202 0.00642897 10 0Z" fill="white"/>
  <path d="M15.7725 6.83313L10.0683 14.574C9.93228 14.7545 9.72942 14.8727 9.50533 14.9022C9.28124 14.9316 9.05472 14.8698 8.87665 14.7306L4.80331 11.474C4.44387 11.1863 4.38567 10.6617 4.67331 10.3023C4.96096 9.94285 5.48554 9.88465 5.84498 10.1723L9.24165 12.8898L14.4308 5.8473C14.601 5.59195 14.8977 5.45078 15.2032 5.47983C15.5086 5.50887 15.7734 5.70344 15.8924 5.98627C16.0114 6.26911 15.9653 6.59445 15.7725 6.83313Z" fill="white"/>
</svg>