<svg width="38" height="38" viewBox="0 0 38 38" fill="none" xmlns="http://www.w3.org/2000/svg"><path d="M37.64 11.303a13.6 13.6 0 0 0-.873-4.617A9.6 9.6 0 0 0 31.282 1.2a13.8 13.8 0 0 0-4.555-.875C24.723.236 24.088.21 19 .21s-5.74 0-7.729.115A13.8 13.8 0 0 0 6.72 1.2a9.6 9.6 0 0 0-5.485 5.485 13.7 13.7 0 0 0-.873 4.552c-.09 2.006-.117 2.642-.117 7.73 0 5.087 0 5.737.117 7.728a13.7 13.7 0 0 0 .873 4.557 9.6 9.6 0 0 0 5.487 5.483 13.7 13.7 0 0 0 4.552.937c2.007.09 2.642.117 7.73.117 5.087 0 5.74 0 7.729-.117a13.7 13.7 0 0 0 4.554-.873 9.6 9.6 0 0 0 5.485-5.485 13.7 13.7 0 0 0 .873-4.556c.09-2.004.117-2.64.117-7.73-.004-5.087-.004-5.733-.121-7.726M18.988 28.588a9.63 9.63 0 0 1-9.631-9.631 9.63 9.63 0 0 1 16.441-6.81 9.632 9.632 0 0 1-6.81 16.441m10.015-17.373a2.243 2.243 0 0 1-2.076-3.105 2.245 2.245 0 1 1 2.076 3.105" fill="#8B949E"/><path d="M18.988 25.212a6.256 6.256 0 1 0 0-12.513 6.256 6.256 0 0 0 0 12.513" fill="#8B949E"/></svg>