<svg width="38" height="38" viewBox="0 0 38 38" fill="none" xmlns="http://www.w3.org/2000/svg"><path d="M35.667.25H2.333A2.083 2.083 0 0 0 .25 2.333v33.334a2.083 2.083 0 0 0 2.083 2.083h33.334a2.083 2.083 0 0 0 2.083-2.083V2.333A2.083 2.083 0 0 0 35.667.25M11.373 32.202H5.806V14.306h5.567zM8.59 11.862a3.225 3.225 0 1 1 0-6.45 3.225 3.225 0 0 1 0 6.45m23.614 20.34h-5.56V23.5c0-2.075-.038-4.744-2.892-4.744-2.896 0-3.335 2.263-3.335 4.598v8.85H14.86V14.308h5.334v2.446h.077c.74-1.406 2.556-2.89 5.258-2.89 5.634 0 6.673 3.705 6.673 8.526z" fill="#8B949E"/></svg>