<svg width="20" height="20" viewBox="0 0 20 20" fill="none" xmlns="http://www.w3.org/2000/svg">
<g id="check-circle-1">
<path id="Shape" d="M10 0C4.47715 0 0 4.47715 0 10C0 15.5228 4.47715 20 10 20C15.5228 20 20 15.5228 20 10C19.9936 4.47982 15.5202 0.00642897 10 0Z" fill="#373737" fill-opacity="0.2"/>
<path id="Path" d="M15.7725 6.83313L10.0683 14.574C9.93231 14.7545 9.72945 14.8727 9.50536 14.9022C9.28127 14.9316 9.05475 14.8698 8.87668 14.7306L4.80334 11.474C4.4439 11.1863 4.3857 10.6617 4.67334 10.3023C4.96099 9.94285 5.48557 9.88465 5.84501 10.1723L9.24168 12.8898L14.4308 5.8473C14.601 5.59195 14.8977 5.45078 15.2032 5.47983C15.5087 5.50887 15.7734 5.70344 15.8924 5.98627C16.0114 6.26911 15.9653 6.59445 15.7725 6.83313Z" fill="#373737"/>
</g>
</svg>
